Input #0, mov,mp4,m4a,3gp,3g2,mj2, from '/var/www/html/project/media/video/original/IMG_4270.MOV':
  Metadata:
    major_brand     : qt  
    minor_version   : 0
    compatible_brands: qt  
    creation_time   : 2026-03-28T13:55:41.000000Z
    com.apple.quicktime.location.accuracy.horizontal: 64.393785
    com.apple.quicktime.full-frame-rate-playback-intent: 0
    com.apple.quicktime.location.ISO6709: +44.0253+012.6168+010.201/
    com.apple.quicktime.make: Apple
    com.apple.quicktime.model: iPhone 15 Pro Max
    com.apple.quicktime.software: 26.3.1
    com.apple.quicktime.creationdate: 2026-03-28T14:55:41+0100
  Duration: 00:00:04.13, start: 0.000000, bitrate: 5190 kb/s
  Stream #0:0[0x1](und): Video: hevc (Main), 1 reference frame (hvc1 / 0x31637668), yuv420p(tv, bt709, left), 1280x720, 4972 kb/s, 30 fps, 30 tbr, 600 tbn (default)
    Metadata:
      creation_time   : 2026-03-28T13:55:41.000000Z
      handler_name    : Core Media Video
      vendor_id       : [0][0][0][0]
      encoder         : HEVC
    Side data:
      displaymatrix: rotation of -90.00 degrees
  Stream #0:1[0x2](und): Audio: aac (LC) (mp4a / 0x6134706D), 48000 Hz, stereo, fltp, 159 kb/s (default)
    Metadata:
      creation_time   : 2026-03-28T13:55:41.000000Z
      handler_name    : Core Media Audio
      vendor_id       : [0][0][0][0]
  Stream #0:2[0x3](und): Data: none (mebx / 0x7862656D), 0 kb/s (default)
    Metadata:
      creation_time   : 2026-03-28T13:55:41.000000Z
      handler_name    : Core Media Metadata
  Stream #0:3[0x4](und): Data: none (mebx / 0x7862656D), 0 kb/s (default)
    Metadata:
      creation_time   : 2026-03-28T13:55:41.000000Z
      handler_name    : Core Media Metadata
  Stream #0:4[0x5](und): Data: none (mebx / 0x7862656D), 34 kb/s (default)
    Metadata:
      creation_time   : 2026-03-28T13:55:41.000000Z
      handler_name    : Core Media Metadata
  Stream #0:5[0x6](und): Data: none (mebx / 0x7862656D), 0 kb/s (default)
    Metadata:
      creation_time   : 2026-03-28T13:55:41.000000Z
      handler_name    : Core Media Metadata
Input #1, png_pipe, from '/var/www/html/project/static/images/templates/logo_vertical.png':
  Duration: N/A, bitrate: N/A
  Stream #1:0: Video: png, 1 reference frame, rgba(pc, gbr/unknown/unknown), 1920x1080 [SAR 2835:2835 DAR 16:9], 25 fps, 25 tbr, 25 tbn
[h264 @ 0x57cffb078c40] Reinit context to 1280x720, pix_fmt: yuv420p
Input #2, mov,mp4,m4a,3gp,3g2,mj2, from '/var/www/html/project/static/images/templates/Codino.mp4':
  Metadata:
    major_brand     : mp42
    minor_version   : 1
    compatible_brands: isommp41mp42
    creation_time   : 2021-07-11T07:02:58.000000Z
  Duration: 00:00:02.00, start: 0.000000, bitrate: 1007 kb/s
  Stream #2:0[0x1](ita): Audio: aac (LC) (mp4a / 0x6134706D), 44100 Hz, stereo, fltp, 102 kb/s (default)
    Metadata:
      creation_time   : 2021-07-11T07:02:58.000000Z
      handler_name    : Core Media Audio
      vendor_id       : [0][0][0][0]
  Stream #2:1[0x2](und): Video: h264 (High), 1 reference frame (avc1 / 0x31637661), yuv420p(tv, bt709, progressive, left), 1280x720 [SAR 1:1 DAR 16:9], 813 kb/s, 25 fps, 25 tbr, 25k tbn (default)
    Metadata:
      creation_time   : 2021-07-11T07:02:58.000000Z
      handler_name    : Core Media Video
      vendor_id       : [0][0][0][0]
[out#0/mp4 @ 0x57cffd3f1000] Adding streams from explicit maps...
[out#0/mp4 @ 0x57cffd3f1000] Creating output stream from an explicitly mapped complex filtergraph 0, output [v_final]
[vost#0:0/libx264 @ 0x57cffd3f1a00] Created video stream from complex filtergraph 0:[concat]
[vost#0:0/libx264 @ 0x57cffd3f1a00] 
[out#0/mp4 @ 0x57cffd3f1000] Creating output stream from an explicitly mapped complex filtergraph 0, output [a_final]
[aost#0:1/aac @ 0x57cffd3f3600] Created audio stream from complex filtergraph 0:[concat]
[aost#0:1/aac @ 0x57cffd3f3600] 
Stream mapping:
  Stream #0:0 (hevc) -> fps:default
  Stream #0:1 (aac) -> concat
  Stream #1:0 (png) -> overlay
  Stream #2:0 (aac) -> concat
  Stream #2:1 (h264) -> fps:default
  concat -> Stream #0:0 (libx264)
  concat -> Stream #0:1 (aac)
Press [q] to stop, [?] for help
[in#1/png_pipe @ 0x57cffafd6880] EOF while reading input
[in#1/png_pipe @ 0x57cffafd6880] Terminating demuxer thread
[vist#1:0/png @ 0x57cffb079b00] Decoder thread received EOF packet
[vist#1:0/png @ 0x57cffb079b00] Decoder returned EOF, finishing
[vist#1:0/png @ 0x57cffb079b00] Terminating decoder thread
[h264 @ 0x57cffb37aac0] Reinit context to 1280x720, pix_fmt: yuv420p
[Parsed_scale_1 @ 0x57cffd4c7740] w:1280 h:720 flags:'' interl:0
[Parsed_scale_5 @ 0x57cffd4d4f40] w:-1 h:720 flags:'' interl:0
[Parsed_scale_10 @ 0x57cffd4e2a40] w:1280 h:720 flags:'' interl:0
[graph 0 input from stream 0:0 @ 0x57cffd4c39c0] w:1280 h:720 pixfmt:yuv420p tb:1/600 fr:30/1 sar:0/1
[graph 0 input from stream 1:0 @ 0x57cffd4c35c0] w:1920 h:1080 pixfmt:rgba tb:1/25 fr:25/1 sar:2835/2835
[graph 0 input from stream 2:1 @ 0x57cffd4c41c0] w:1280 h:720 pixfmt:yuv420p tb:1/25000 fr:25/1 sar:1/1
[graph_0_in_0_1 @ 0x57cffd4c42c0] tb:1/48000 samplefmt:fltp samplerate:48000 chlayout:stereo
[graph_0_in_2_0 @ 0x57cffd4f2240] tb:1/44100 samplefmt:fltp samplerate:44100 chlayout:stereo
[auto_scale_0 @ 0x57cffd4f7e40] w:iw h:ih flags:'' interl:0
[Parsed_overlay_8 @ 0x57cffd4e2580] auto-inserting filter 'auto_scale_0' between the filter 'graph 0 input from stream 1:0' and the filter 'Parsed_overlay_8'
[Parsed_concat_13 @ 0x57cffd4f0100] auto-inserting filter 'auto_aresample_1' between the filter 'graph_0_in_2_0' and the filter 'Parsed_concat_13'
[transpose @ 0x57cffb13ffc0] w:1280 h:720 dir:1 -> w:720 h:1280 rotation:clockwise vflip:0
[Parsed_fps_0 @ 0x57cffd4c74c0] fps=30/1
[Parsed_scale_1 @ 0x57cffd4c7740] w:720 h:1280 fmt:yuv420p sar:0/1 -> w:1280 h:720 fmt:yuv420p sar:0/1 flags:0x00000004
[Parsed_boxblur_4 @ 0x57cffd4d4d40] luma_radius:10 luma_power:1 chroma_radius:10 chroma_power:1 alpha_radius:10 alpha_power:1 w:1280 chroma_w:640 h:720 chroma_h:360
[Parsed_scale_5 @ 0x57cffd4d4f40] w:1280 h:720 fmt:yuv420p sar:0/1 -> w:1280 h:720 fmt:yuva420p sar:0/1 flags:0x00000004
[Parsed_overlay_6 @ 0x57cffd4e20c0] main w:1280 h:720 fmt:yuv420p overlay w:1280 h:720 fmt:yuva420p
[Parsed_overlay_6 @ 0x57cffd4e20c0] [framesync @ 0x57cffb0033e8] Selected 1/30 time base
[Parsed_overlay_6 @ 0x57cffd4e20c0] [framesync @ 0x57cffb0033e8] Sync level 2
[Parsed_setsar_7 @ 0x57cffd4e2340] w:1280 h:720 sar:0/1 dar:16/9 -> sar:1/1 dar:16/9
[auto_scale_0 @ 0x57cffd4f7e40] w:1920 h:1080 fmt:rgba sar:2835/2835 -> w:1920 h:1080 fmt:yuva420p sar:1/1 flags:0x00000004
[Parsed_overlay_8 @ 0x57cffd4e2580] main w:1280 h:720 fmt:yuv420p overlay w:1920 h:1080 fmt:yuva420p
[Parsed_overlay_8 @ 0x57cffd4e2580] [framesync @ 0x57cffb0036e8] Selected 1/150 time base
[Parsed_overlay_8 @ 0x57cffd4e2580] [framesync @ 0x57cffb0036e8] Sync level 2
[Parsed_fps_9 @ 0x57cffd4e2800] fps=30/1
[Parsed_scale_10 @ 0x57cffd4e2a40] w:1280 h:720 fmt:yuv420p sar:1/1 -> w:1280 h:720 fmt:yuv420p sar:1/1 flags:(null)
[Parsed_setsar_12 @ 0x57cffd4efe40] w:1280 h:720 sar:1/1 dar:16/9 -> sar:1/1 dar:16/9
[auto_aresample_1 @ 0x57cffd505940] ch:2 chl:stereo fmt:fltp r:44100Hz -> ch:2 chl:stereo fmt:fltp r:48000Hz
[auto_scale_0 @ 0x57cffd4f7e40] w:1920 h:1080 fmt:rgba sar:2835/2835 -> w:1920 h:1080 fmt:yuva420p sar:1/1 flags:0x00000004
    Last message repeated 2 times
[Parsed_fps_0 @ 0x57cffd4c74c0] Set first pts to 0
[Parsed_scale_1 @ 0x57cffd4c7740] w:720 h:1280 fmt:yuv420p sar:0/1 -> w:1280 h:720 fmt:yuv420p sar:0/1 flags:0x00000004
    Last message repeated 2 times
[Parsed_scale_5 @ 0x57cffd4d4f40] w:1280 h:720 fmt:yuv420p sar:0/1 -> w:1280 h:720 fmt:yuva420p sar:0/1 flags:0x00000004
    Last message repeated 2 times
[libx264 @ 0x57cffd3f1dc0] using SAR=1/1
[libx264 @ 0x57cffd3f1dc0] using cpu capabilities: MMX2 SSE2Fast SSSE3 SSE4.2 AVX FMA3 BMI2 AVX2
[libx264 @ 0x57cffd3f1dc0] profile Constrained Baseline, level 3.1, 4:2:0, 8-bit
[libx264 @ 0x57cffd3f1dc0] 264 - core 164 r3108 31e19f9 - H.264/MPEG-4 AVC codec - Copyleft 2003-2023 - http://www.videolan.org/x264.html - options: cabac=0 ref=1 deblock=0:0:0 analyse=0:0 me=dia subme=0 psy=1 psy_rd=1.00:0.00 mixed_ref=0 me_range=16 chroma_me=1 trellis=0 8x8dct=0 cqm=0 deadzone=21,11 fast_pskip=1 chroma_qp_offset=0 threads=22 lookahead_threads=3 sliced_threads=0 nr=0 decimate=1 interlaced=0 bluray_compat=0 constrained_intra=0 bframes=0 weightp=0 keyint=250 keyint_min=25 scenecut=0 intra_refresh=0 rc=crf mbtree=0 crf=23.0 qcomp=0.60 qpmin=0 qpmax=69 qpstep=4 ip_ratio=1.40 aq=0
Output #0, mp4, to '/var/www/html/project/media/video/watermarks/IMG_4270.mp4':
  Metadata:
    major_brand     : qt  
    minor_version   : 0
    compatible_brands: qt  
    com.apple.quicktime.creationdate: 2026-03-28T14:55:41+0100
    com.apple.quicktime.location.accuracy.horizontal: 64.393785
    com.apple.quicktime.full-frame-rate-playback-intent: 0
    com.apple.quicktime.location.ISO6709: +44.0253+012.6168+010.201/
    com.apple.quicktime.make: Apple
    com.apple.quicktime.model: iPhone 15 Pro Max
    com.apple.quicktime.software: 26.3.1
    encoder         : Lavf60.16.100
  Stream #0:0: Video: h264, 1 reference frame (avc1 / 0x31637661), yuv420p(tv, bt709, progressive, left), 1280x720 (0x0) [SAR 1:1 DAR 16:9], q=2-31, 30 fps, 15360 tbn
    Metadata:
      encoder         : Lavc60.31.102 libx264
    Side data:
      cpb: bitrate max/min/avg: 0/0/0 buffer size: 0 vbv_delay: N/A
  Stream #0:1: Audio: aac (LC) (mp4a / 0x6134706D), 48000 Hz, stereo, fltp, delay 1024, 128 kb/s
    Metadata:
      encoder         : Lavc60.31.102 aac
[in#0/mov,mp4,m4a,3gp,3g2,mj2 @ 0x57cffafd69c0] EOF while reading input
[in#0/mov,mp4,m4a,3gp,3g2,mj2 @ 0x57cffafd69c0] Terminating demuxer thread
[vist#0:0/hevc @ 0x57cffafd5d40] Decoder thread received EOF packet
[vist#0:0/hevc @ 0x57cffafd5d40] Decoder returned EOF, finishing
[vist#0:0/hevc @ 0x57cffafd5d40] Terminating decoder thread
[aist#0:1/aac @ 0x57cffafd5ec0] Decoder thread received EOF packet
[aist#0:1/aac @ 0x57cffafd5ec0] Decoder returned EOF, finishing
[aist#0:1/aac @ 0x57cffafd5ec0] Terminating decoder thread
[Parsed_concat_13 @ 0x57cffd4f0100] EOF on in0:a0, 1 streams left in segment.
[Parsed_overlay_6 @ 0x57cffd4e20c0] [framesync @ 0x57cffb0033e8] Sync level 1
[Parsed_overlay_6 @ 0x57cffd4e20c0] [framesync @ 0x57cffb0033e8] Sync level 0
[Parsed_overlay_8 @ 0x57cffd4e2580] [framesync @ 0x57cffb0036e8] Sync level 0
[Parsed_concat_13 @ 0x57cffd4f0100] EOF on in0:v0, 0 streams left in segment.
[Parsed_concat_13 @ 0x57cffd4f0100] Segment finished at pts=4137333
[Parsed_fps_9 @ 0x57cffd4e2800] Set first pts to 0
[Parsed_scale_10 @ 0x57cffd4e2a40] w:1280 h:720 fmt:yuv420p sar:1/1 -> w:1280 h:720 fmt:yuv420p sar:1/1 flags:(null)
    Last message repeated 2 times
[in#2/mov,mp4,m4a,3gp,3g2,mj2 @ 0x57cffb079c80] EOF while reading input
[in#2/mov,mp4,m4a,3gp,3g2,mj2 @ 0x57cffb079c80] Terminating demuxer thread
[aist#2:0/aac @ 0x57cffb01a1c0] Decoder thread received EOF packet
[aist#2:0/aac @ 0x57cffb01a1c0] Decoder returned EOF, finishing
[aist#2:0/aac @ 0x57cffb01a1c0] Terminating decoder thread
[vist#2:1/h264 @ 0x57cffb01e900] Decoder thread received EOF packet
[vist#2:1/h264 @ 0x57cffb01e900] Decoder returned EOF, finishing
[vist#2:1/h264 @ 0x57cffb01e900] Terminating decoder thread
[Parsed_concat_13 @ 0x57cffd4f0100] EOF on in1:v0, 1 streams left in segment.
[Parsed_concat_13 @ 0x57cffd4f0100] EOF on in1:a0, 0 streams left in segment.
[Parsed_concat_13 @ 0x57cffd4f0100] Segment finished at pts=6156020
No more output streams to write to, finishing.
[out#0/mp4 @ 0x57cffd3f1000] All streams finished
[out#0/mp4 @ 0x57cffd3f1000] Terminating muxer thread
[AVIOContext @ 0x57cffd4beb40] Statistics: 2938394 bytes written, 2 seeks, 15 writeouts
[out#0/mp4 @ 0x57cffd3f1000] Output file #0 (/var/www/html/project/media/video/watermarks/IMG_4270.mp4):
[out#0/mp4 @ 0x57cffd3f1000]   Output stream #0:0 (video): 184 frames encoded; 184 packets muxed (2841033 bytes); 
[out#0/mp4 @ 0x57cffd3f1000]   Output stream #0:1 (audio): 289 frames encoded (295489 samples); 290 packets muxed (90616 bytes); 
[out#0/mp4 @ 0x57cffd3f1000]   Total: 474 packets (2931649 bytes) muxed
[out#0/mp4 @ 0x57cffd3f1000] video:2774kB audio:88kB subtitle:0kB other streams:0kB global headers:0kB muxing overhead: 0.229939%
frame=  184 fps= 75 q=-1.0 Lsize=    2870kB time=00:00:06.14 bitrate=3826.0kbits/s speed=2.51x    
[AVIOContext @ 0x57cffb001240] Statistics: 1176 bytes written, 0 seeks, 6 writeouts
[Parsed_fps_0 @ 0x57cffd4c74c0] 124 frames in, 124 frames out; 0 frames dropped, 0 frames duplicated.
[Parsed_fps_9 @ 0x57cffd4e2800] 50 frames in, 60 frames out; 0 frames dropped, 10 frames duplicated.
[libx264 @ 0x57cffd3f1dc0] frame I:1     Avg QP:20.00  size: 74740
[libx264 @ 0x57cffd3f1dc0] frame P:183   Avg QP:19.58  size: 15113
[libx264 @ 0x57cffd3f1dc0] mb I  I16..4: 100.0%  0.0%  0.0%
[libx264 @ 0x57cffd3f1dc0] mb P  I16..4:  2.6%  0.0%  0.0%  P16..4: 27.8%  0.0%  0.0%  0.0%  0.0%    skip:69.6%
[libx264 @ 0x57cffd3f1dc0] coded y,uvDC,uvAC intra: 35.3% 22.1% 9.2% inter: 14.9% 6.5% 1.2%
[libx264 @ 0x57cffd3f1dc0] i16 v,h,dc,p: 33% 49%  8%  9%
[libx264 @ 0x57cffd3f1dc0] i8c dc,h,v,p: 51% 39%  6%  4%
[libx264 @ 0x57cffd3f1dc0] kb/s:3704.91
[aac @ 0x57cffd3f3a00] Qavg: 7090.949
[in#0/mov,mp4,m4a,3gp,3g2,mj2 @ 0x57cffafd69c0] Input file #0 (/var/www/html/project/media/video/original/IMG_4270.MOV):
[in#0/mov,mp4,m4a,3gp,3g2,mj2 @ 0x57cffafd69c0]   Input stream #0:0 (video): 124 packets read (2569374 bytes); 124 frames decoded; 0 decode errors; 
[in#0/mov,mp4,m4a,3gp,3g2,mj2 @ 0x57cffafd69c0]   Input stream #0:1 (audio): 196 packets read (83210 bytes); 194 frames decoded; 0 decode errors (198592 samples); 
[in#0/mov,mp4,m4a,3gp,3g2,mj2 @ 0x57cffafd69c0]   Total: 320 packets (2652584 bytes) demuxed
[AVIOContext @ 0x57cffb0039c0] Statistics: 2725584 bytes read, 2 seeks
[in#1/png_pipe @ 0x57cffafd6880] Input file #1 (/var/www/html/project/static/images/templates/logo_vertical.png):
[in#1/png_pipe @ 0x57cffafd6880]   Input stream #1:0 (video): 1 packets read (93903 bytes); 1 frames decoded; 0 decode errors; 
[in#1/png_pipe @ 0x57cffafd6880]   Total: 1 packets (93903 bytes) demuxed
[AVIOContext @ 0x57cffaff2f80] Statistics: 93903 bytes read, 0 seeks
[in#2/mov,mp4,m4a,3gp,3g2,mj2 @ 0x57cffb079c80] Input file #2 (/var/www/html/project/static/images/templates/Codino.mp4):
[in#2/mov,mp4,m4a,3gp,3g2,mj2 @ 0x57cffb079c80]   Input stream #2:0 (audio): 89 packets read (26579 bytes); 87 frames decoded; 0 decode errors (89024 samples); 
[in#2/mov,mp4,m4a,3gp,3g2,mj2 @ 0x57cffb079c80]   Input stream #2:1 (video): 50 packets read (203365 bytes); 50 frames decoded; 0 decode errors; 
[in#2/mov,mp4,m4a,3gp,3g2,mj2 @ 0x57cffb079c80]   Total: 139 packets (229944 bytes) demuxed
[AVIOContext @ 0x57cffb07b100] Statistics: 1629219 bytes read, 37 seeks
